<?xml version="1.0" encoding="UTF-8" standalone="no"?>
<!DOCTYPE svg PUBLIC "-//W3C//DTD SVG 1.1//EN"
 "http://www.w3.org/Graphics/SVG/1.1/DTD/svg11.dtd">
<!-- Generated by graphviz version 9.0.0 (20230911.1827)
 -->
<!-- Title: Invest Journal Infrastructure Pages: 1 -->
<svg width="1011pt" height="967pt"
 viewBox="0.00 0.00 1011.20 967.00" xmlns="http://www.w3.org/2000/svg" xmlns:xlink="http://www.w3.org/1999/xlink">
<g id="graph0" class="graph" transform="scale(1 1) rotate(0) translate(144 823)">
<title>Invest Journal Infrastructure</title>
<polygon fill="white" stroke="none" points="-144,144 -144,-823 867.2,-823 867.2,144 -144,144"/>
<text text-anchor="middle" x="361.6" y="-7.75" font-family="Calibri" font-size="15.00" fill="#2d3436">Invest Journal Infrastructure</text>
<g id="clust2" class="cluster">
<title>cluster_Railway Hosted Services</title>
<path fill="#e5f5fd" stroke="#aeb6be" d="M167.8,-217C167.8,-217 703.2,-217 703.2,-217 709.2,-217 715.2,-223 715.2,-229 715.2,-229 715.2,-659 715.2,-659 715.2,-665 709.2,-671 703.2,-671 703.2,-671 167.8,-671 167.8,-671 161.8,-671 155.8,-665 155.8,-659 155.8,-659 155.8,-229 155.8,-229 155.8,-223 161.8,-217 167.8,-217"/>
<text text-anchor="middle" x="223.05" y="-655.6" font-family="Calibri" font-size="12.00" fill="#2d3436">Railway Hosted Services</text>
</g>
<g id="clust4" class="cluster">
<title>cluster_Frontend</title>
<path fill="#f9eee8" stroke="#aeb6be" d="M175.8,-437C175.8,-437 487.15,-437 487.15,-437 493.15,-437 499.15,-443 499.15,-449 499.15,-449 499.15,-600 499.15,-600 499.15,-606 493.15,-612 487.15,-612 487.15,-612 175.8,-612 175.8,-612 169.8,-612 163.8,-606 163.8,-600 163.8,-600 163.8,-449 163.8,-449 163.8,-443 169.8,-437 175.8,-437"/>
<text text-anchor="middle" x="193.17" y="-596.6" font-family="Calibri" font-size="12.00" fill="#2d3436">Frontend</text>
</g>
<g id="clust3" class="cluster">
<title>cluster_Backend</title>
<path fill="mintcream" stroke="#aeb6be" d="M394.35,-225C394.35,-225 695.2,-225 695.2,-225 701.2,-225 707.2,-231 707.2,-237 707.2,-237 707.2,-417 707.2,-417 707.2,-423 701.2,-429 695.2,-429 695.2,-429 394.35,-429 394.35,-429 388.35,-429 382.35,-423 382.35,-417 382.35,-417 382.35,-237 382.35,-237 382.35,-231 388.35,-225 394.35,-225"/>
<text text-anchor="middle" x="410.97" y="-413.6" font-family="Calibri" font-size="12.00" fill="#2d3436">Backend</text>
</g>
<g id="clust5" class="cluster">
<title>cluster_Analysis</title>
<path fill="lavender" stroke="#aeb6be" d="M602.4,-437C602.4,-437 695.2,-437 695.2,-437 701.2,-437 707.2,-443 707.2,-449 707.2,-449 707.2,-629 707.2,-629 707.2,-635 701.2,-641 695.2,-641 695.2,-641 602.4,-641 602.4,-641 596.4,-641 590.4,-635 590.4,-629 590.4,-629 590.4,-449 590.4,-449 590.4,-443 596.4,-437 602.4,-437"/>
<text text-anchor="middle" x="618.65" y="-625.6" font-family="Calibri" font-size="12.00" fill="#2d3436">Analysis</text>
</g>
<g id="clust1" class="cluster">
<title>cluster_External Data Sources</title>
<path fill="cornsilk" stroke="#aeb6be" d="M20,-34C20,-34 268.6,-34 268.6,-34 274.6,-34 280.6,-40 280.6,-46 280.6,-46 280.6,-197 280.6,-197 280.6,-203 274.6,-209 268.6,-209 268.6,-209 20,-209 20,-209 14,-209 8,-203 8,-197 8,-197 8,-46 8,-46 8,-40 14,-34 20,-34"/>
<text text-anchor="middle" x="69.25" y="-40.85" font-family="Calibri" font-size="12.00" fill="#2d3436">External Data Sources</text>
</g>
<!-- c06220bb4d374e41b3f779295aeb68a2 -->
<g id="node1" class="node">
<title>c06220bb4d374e41b3f779295aeb68a2</title>
<image xlink:href="C:\Users\cdpet\anaconda3\envs\invest\Lib\site-packages\resources/onprem/client\client.png" width="100.8px" height="100.8px" preserveAspectRatio="xMinYMin meet" x="16" y="-563.4"/>
<text text-anchor="middle" x="66.4" y="-448" font-family="Calibri" font-size="13.00" fill="#2d3436">User Client</text>
</g>
<!-- 6a8e12be2bf24950a5aea9893fa080c7 -->
<g id="node6" class="node">
<title>6a8e12be2bf24950a5aea9893fa080c7</title>
<image xlink:href="C:\Users\cdpet\anaconda3\envs\invest\Lib\site-packages\resources/programming/framework\react.png" width="100.8px" height="100.8px" preserveAspectRatio="xMinYMin meet" x="171.8" y="-563.4"/>
<text text-anchor="middle" x="222.2" y="-448" font-family="Calibri" font-size="13.00" fill="#2d3436">App</text>
</g>
<!-- c06220bb4d374e41b3f779295aeb68a2&#45;&gt;6a8e12be2bf24950a5aea9893fa080c7 -->
<g id="edge7" class="edge">
<title>c06220bb4d374e41b3f779295aeb68a2&#45;&gt;6a8e12be2bf24950a5aea9893fa080c7</title>
<path fill="none" stroke="tomato" d="M128.07,-513C128.07,-513 160.36,-513 160.36,-513"/>
<polygon fill="tomato" stroke="tomato" points="128.07,-509.5 118.07,-513 128.07,-516.5 128.07,-509.5"/>
<polygon fill="tomato" stroke="tomato" points="160.36,-516.5 170.36,-513 160.36,-509.5 160.36,-516.5"/>
</g>
<!-- 4efc33ccb929437bb5242335db2ac43d -->
<g id="node2" class="node">
<title>4efc33ccb929437bb5242335db2ac43d</title>
<image xlink:href="C:\Users\cdpet\Documents\Data Collab Projects\invest_journal\invest-journal\diagrams\images\tradier.png" width="100.8px" height="100.854px" preserveAspectRatio="xMinYMin meet" x="16" y="-183.427"/>
<text text-anchor="middle" x="66.4" y="-68" font-family="Calibri" font-size="13.00" fill="#2d3436">Tradier CSV</text>
</g>
<!-- 21d17ba601e44a90a0165f8f2c72f62e -->
<g id="node3" class="node">
<title>21d17ba601e44a90a0165f8f2c72f62e</title>
<image xlink:href="C:\Users\cdpet\Documents\Data Collab Projects\invest_journal\invest-journal\diagrams\images\tradestation.png" width="100.8px" height="134.366px" preserveAspectRatio="xMinYMin meet" x="171.8" y="-200.183"/>
<text text-anchor="middle" x="222.2" y="-68" font-family="Calibri" font-size="13.00" fill="#2d3436">TradeStation API</text>
</g>
<!-- 4efc33ccb929437bb5242335db2ac43d&#45;&gt;21d17ba601e44a90a0165f8f2c72f62e -->
<!-- 4fc8d8fa88c9488ea9c9c59f255566dc -->
<g id="node4" class="node">
<title>4fc8d8fa88c9488ea9c9c59f255566dc</title>
<image xlink:href="C:\Users\cdpet\Documents\Data Collab Projects\invest_journal\invest-journal\diagrams\images\fastapi.png" width="100.8px" height="100.8px" preserveAspectRatio="xMinYMin meet" x="390.35" y="-366.4"/>
<text text-anchor="middle" x="440.75" y="-252.35" font-family="Calibri" font-size="13.00" fill="#2d3436">FastAPI</text>
<text text-anchor="middle" x="440.75" y="-236.6" font-family="Calibri" font-size="13.00" fill="#2d3436">Python Server</text>
</g>
<!-- 4efc33ccb929437bb5242335db2ac43d&#45;&gt;4fc8d8fa88c9488ea9c9c59f255566dc -->
<g id="edge2" class="edge">
<title>4efc33ccb929437bb5242335db2ac43d&#45;&gt;4fc8d8fa88c9488ea9c9c59f255566dc</title>
<path fill="none" stroke="#00cdcd" d="M67.2,-201.16C67.2,-242.91 67.2,-288.4 67.2,-288.4 67.2,-288.4 378.86,-288.4 378.86,-288.4"/>
<polygon fill="#00cdcd" stroke="#00cdcd" points="378.86,-291.9 388.86,-288.4 378.86,-284.9 378.86,-291.9"/>
</g>
<!-- 21d17ba601e44a90a0165f8f2c72f62e&#45;&gt;4fc8d8fa88c9488ea9c9c59f255566dc -->
<g id="edge3" class="edge">
<title>21d17ba601e44a90a0165f8f2c72f62e&#45;&gt;4fc8d8fa88c9488ea9c9c59f255566dc</title>
<path fill="none" stroke="#00cdcd" d="M272.44,-133C337.1,-133 441.2,-133 441.2,-133 441.2,-133 441.2,-221.82 441.2,-221.82"/>
<polygon fill="#00cdcd" stroke="#00cdcd" points="437.7,-221.82 441.2,-231.82 444.7,-221.82 437.7,-221.82"/>
</g>
<!-- 052127f7300649b5bd2b20c9c2d4f360 -->
<g id="node5" class="node">
<title>052127f7300649b5bd2b20c9c2d4f360</title>
<image xlink:href="C:\Users\cdpet\anaconda3\envs\invest\Lib\site-packages\resources/generic/storage\storage.png" width="100.8px" height="100.8px" preserveAspectRatio="xMinYMin meet" x="598.4" y="-366.4"/>
<text text-anchor="middle" x="648.8" y="-251" font-family="Calibri" font-size="13.00" fill="#2d3436">SQL Database</text>
</g>
<!-- 4fc8d8fa88c9488ea9c9c59f255566dc&#45;&gt;052127f7300649b5bd2b20c9c2d4f360 -->
<g id="edge4" class="edge">
<title>4fc8d8fa88c9488ea9c9c59f255566dc&#45;&gt;052127f7300649b5bd2b20c9c2d4f360</title>
<path fill="none" stroke="tomato" d="M502.63,-316C502.63,-316 587.03,-316 587.03,-316"/>
<polygon fill="tomato" stroke="tomato" points="502.63,-312.5 492.63,-316 502.63,-319.5 502.63,-312.5"/>
<polygon fill="tomato" stroke="tomato" points="587.03,-319.5 597.03,-316 587.03,-312.5 587.03,-319.5"/>
<text text-anchor="middle" x="544.77" y="-319.4" font-family="Calibri" font-size="13.00" fill="#2d3436">SQLModel</text>
</g>
<!-- acf57f17d9ac4cbc85c442a550303c8a -->
<g id="node8" class="node">
<title>acf57f17d9ac4cbc85c442a550303c8a</title>
<image xlink:href="C:\Users\cdpet\Documents\Data Collab Projects\invest_journal\invest-journal\diagrams\images\fastapi.png" width="100.8px" height="100.8px" preserveAspectRatio="xMinYMin meet" x="598.4" y="-578.4"/>
<text text-anchor="middle" x="648.8" y="-464.35" font-family="Calibri" font-size="13.00" fill="#2d3436">FastAPI</text>
<text text-anchor="middle" x="648.8" y="-448.6" font-family="Calibri" font-size="13.00" fill="#2d3436">Analysis Server</text>
</g>
<!-- 4fc8d8fa88c9488ea9c9c59f255566dc&#45;&gt;acf57f17d9ac4cbc85c442a550303c8a -->
<g id="edge8" class="edge">
<title>4fc8d8fa88c9488ea9c9c59f255566dc&#45;&gt;acf57f17d9ac4cbc85c442a550303c8a</title>
<path fill="none" stroke="#3064f2" d="M502.46,-391.6C502.46,-391.6 649.2,-391.6 649.2,-391.6 649.2,-391.6 649.2,-434 649.2,-434"/>
<polygon fill="#3064f2" stroke="#3064f2" points="502.46,-388.1 492.46,-391.6 502.46,-395.1 502.46,-388.1"/>
<polygon fill="#3064f2" stroke="#3064f2" points="645.7,-434 649.2,-444 652.7,-434 645.7,-434"/>
</g>
<!-- 6a8e12be2bf24950a5aea9893fa080c7&#45;&gt;4fc8d8fa88c9488ea9c9c59f255566dc -->
<g id="edge6" class="edge">
<title>6a8e12be2bf24950a5aea9893fa080c7&#45;&gt;4fc8d8fa88c9488ea9c9c59f255566dc</title>
<path fill="none" stroke="tomato" d="M222.2,-433.56C222.2,-433.56 222.2,-343.6 222.2,-343.6 222.2,-343.6 379.1,-343.6 379.1,-343.6"/>
<polygon fill="tomato" stroke="tomato" points="218.7,-433.56 222.2,-443.56 225.7,-433.56 218.7,-433.56"/>
<polygon fill="tomato" stroke="tomato" points="379.1,-347.1 389.1,-343.6 379.1,-340.1 379.1,-347.1"/>
</g>
<!-- f28ff8aead20463f93124ba1997d7cdf -->
<g id="node7" class="node">
<title>f28ff8aead20463f93124ba1997d7cdf</title>
<image xlink:href="C:\Users\cdpet\Documents\Data Collab Projects\invest_journal\invest-journal\diagrams\images\sqlite.png" width="100.8px" height="100.8px" preserveAspectRatio="xMinYMin meet" x="390.35" y="-563.4"/>
<text text-anchor="middle" x="440.75" y="-448" font-family="Calibri" font-size="13.00" fill="#2d3436">SQLite</text>
</g>
<!-- 6a8e12be2bf24950a5aea9893fa080c7&#45;&gt;f28ff8aead20463f93124ba1997d7cdf -->
<g id="edge5" class="edge">
<title>6a8e12be2bf24950a5aea9893fa080c7&#45;&gt;f28ff8aead20463f93124ba1997d7cdf</title>
<path fill="none" stroke="mediumslateblue" d="M283.85,-513C283.85,-513 378.95,-513 378.95,-513"/>
<polygon fill="mediumslateblue" stroke="mediumslateblue" points="283.85,-509.5 273.85,-513 283.85,-516.5 283.85,-509.5"/>
<polygon fill="mediumslateblue" stroke="mediumslateblue" points="378.95,-516.5 388.95,-513 378.95,-509.5 378.95,-516.5"/>
<text text-anchor="middle" x="331.47" y="-516.4" font-family="Calibri" font-size="13.00" fill="#2d3436">app settings</text>
</g>
</g>
</svg>
