<?xml version="1.0" encoding="UTF-8" standalone="no"?>
<!DOCTYPE svg PUBLIC "-//W3C//DTD SVG 1.1//EN"
 "http://www.w3.org/Graphics/SVG/1.1/DTD/svg11.dtd">
<!-- Generated by graphviz version 9.0.0 (20230911.1827)
 -->
<!-- Title: Invest Journal Infrastructure Pages: 1 -->
<svg width="1050pt" height="1118pt"
 viewBox="0.00 0.00 1050.20 1118.00" xmlns="http://www.w3.org/2000/svg" xmlns:xlink="http://www.w3.org/1999/xlink">
<g id="graph0" class="graph" transform="scale(1 1) rotate(0) translate(144 974)">
<title>Invest Journal Infrastructure</title>
<polygon fill="white" stroke="none" points="-144,144 -144,-974 906.2,-974 906.2,144 -144,144"/>
<text text-anchor="middle" x="381.1" y="-7.75" font-family="Calibri" font-size="15.00" fill="#2d3436">Invest Journal Infrastructure</text>
<g id="clust2" class="cluster">
<title>cluster_Railway Hosted Services</title>
<path fill="#e5f5fd" stroke="#aeb6be" d="M167.8,-217C167.8,-217 742.2,-217 742.2,-217 748.2,-217 754.2,-223 754.2,-229 754.2,-229 754.2,-810 754.2,-810 754.2,-816 748.2,-822 742.2,-822 742.2,-822 167.8,-822 167.8,-822 161.8,-822 155.8,-816 155.8,-810 155.8,-810 155.8,-229 155.8,-229 155.8,-223 161.8,-217 167.8,-217"/>
<text text-anchor="middle" x="223.05" y="-806.6" font-family="Calibri" font-size="12.00" fill="#2d3436">Railway Hosted Services</text>
</g>
<g id="clust5" class="cluster">
<title>cluster_Analysis</title>
<path fill="lavender" stroke="#aeb6be" d="M641.4,-588C641.4,-588 734.2,-588 734.2,-588 740.2,-588 746.2,-594 746.2,-600 746.2,-600 746.2,-780 746.2,-780 746.2,-786 740.2,-792 734.2,-792 734.2,-792 641.4,-792 641.4,-792 635.4,-792 629.4,-786 629.4,-780 629.4,-780 629.4,-600 629.4,-600 629.4,-594 635.4,-588 641.4,-588"/>
<text text-anchor="middle" x="657.65" y="-776.6" font-family="Calibri" font-size="12.00" fill="#2d3436">Analysis</text>
</g>
<g id="clust4" class="cluster">
<title>cluster_Frontend</title>
<path fill="#f9eee8" stroke="#aeb6be" d="M175.8,-588C175.8,-588 487.15,-588 487.15,-588 493.15,-588 499.15,-594 499.15,-600 499.15,-600 499.15,-751 499.15,-751 499.15,-757 493.15,-763 487.15,-763 487.15,-763 175.8,-763 175.8,-763 169.8,-763 163.8,-757 163.8,-751 163.8,-751 163.8,-600 163.8,-600 163.8,-594 169.8,-588 175.8,-588"/>
<text text-anchor="middle" x="193.17" y="-747.6" font-family="Calibri" font-size="12.00" fill="#2d3436">Frontend</text>
</g>
<g id="clust3" class="cluster">
<title>cluster_Backend</title>
<path fill="mintcream" stroke="#aeb6be" d="M394.35,-225C394.35,-225 734.2,-225 734.2,-225 740.2,-225 746.2,-231 746.2,-237 746.2,-237 746.2,-568 746.2,-568 746.2,-574 740.2,-580 734.2,-580 734.2,-580 394.35,-580 394.35,-580 388.35,-580 382.35,-574 382.35,-568 382.35,-568 382.35,-237 382.35,-237 382.35,-231 388.35,-225 394.35,-225"/>
<text text-anchor="middle" x="410.97" y="-564.6" font-family="Calibri" font-size="12.00" fill="#2d3436">Backend</text>
</g>
<g id="clust1" class="cluster">
<title>cluster_External Data Sources</title>
<path fill="cornsilk" stroke="#aeb6be" d="M20,-34C20,-34 268.6,-34 268.6,-34 274.6,-34 280.6,-40 280.6,-46 280.6,-46 280.6,-197 280.6,-197 280.6,-203 274.6,-209 268.6,-209 268.6,-209 20,-209 20,-209 14,-209 8,-203 8,-197 8,-197 8,-46 8,-46 8,-40 14,-34 20,-34"/>
<text text-anchor="middle" x="69.25" y="-40.85" font-family="Calibri" font-size="12.00" fill="#2d3436">External Data Sources</text>
</g>
<!-- aa69b80de5c64bd4a8015f7fae28205c -->
<g id="node1" class="node">
<title>aa69b80de5c64bd4a8015f7fae28205c</title>
<image xlink:href="C:\Users\cdpet\anaconda3\envs\invest\Lib\site-packages\resources/onprem/client\client.png" width="100.8px" height="100.8px" preserveAspectRatio="xMinYMin meet" x="16" y="-714.4"/>
<text text-anchor="middle" x="66.4" y="-599" font-family="Calibri" font-size="13.00" fill="#2d3436">User Client</text>
</g>
<!-- 6dbaf033254748d987b0837ac0b4bb0c -->
<g id="node7" class="node">
<title>6dbaf033254748d987b0837ac0b4bb0c</title>
<image xlink:href="C:\Users\cdpet\anaconda3\envs\invest\Lib\site-packages\resources/programming/framework\react.png" width="100.8px" height="100.8px" preserveAspectRatio="xMinYMin meet" x="171.8" y="-714.4"/>
<text text-anchor="middle" x="222.2" y="-599" font-family="Calibri" font-size="13.00" fill="#2d3436">App</text>
</g>
<!-- aa69b80de5c64bd4a8015f7fae28205c&#45;&gt;6dbaf033254748d987b0837ac0b4bb0c -->
<g id="edge8" class="edge">
<title>aa69b80de5c64bd4a8015f7fae28205c&#45;&gt;6dbaf033254748d987b0837ac0b4bb0c</title>
<path fill="none" stroke="tomato" d="M128.07,-664C128.07,-664 160.36,-664 160.36,-664"/>
<polygon fill="tomato" stroke="tomato" points="128.07,-660.5 118.07,-664 128.07,-667.5 128.07,-660.5"/>
<polygon fill="tomato" stroke="tomato" points="160.36,-667.5 170.36,-664 160.36,-660.5 160.36,-667.5"/>
</g>
<!-- a8a830bd70644626ae6db1d404e9082a -->
<g id="node2" class="node">
<title>a8a830bd70644626ae6db1d404e9082a</title>
<image xlink:href="C:\Users\cdpet\Documents\Data Collab Projects\invest_journal\invest-journal\diagrams\images\tradier.png" width="100.8px" height="100.854px" preserveAspectRatio="xMinYMin meet" x="16" y="-183.427"/>
<text text-anchor="middle" x="66.4" y="-68" font-family="Calibri" font-size="13.00" fill="#2d3436">Tradier CSV</text>
</g>
<!-- a663f4e578d1477482ee20e443cbcf14 -->
<g id="node3" class="node">
<title>a663f4e578d1477482ee20e443cbcf14</title>
<image xlink:href="C:\Users\cdpet\Documents\Data Collab Projects\invest_journal\invest-journal\diagrams\images\tradestation.png" width="100.8px" height="134.366px" preserveAspectRatio="xMinYMin meet" x="171.8" y="-200.183"/>
<text text-anchor="middle" x="222.2" y="-68" font-family="Calibri" font-size="13.00" fill="#2d3436">TradeStation API</text>
</g>
<!-- a8a830bd70644626ae6db1d404e9082a&#45;&gt;a663f4e578d1477482ee20e443cbcf14 -->
<!-- 03b63373f5c34c57b57d4db61112a871 -->
<g id="node6" class="node">
<title>03b63373f5c34c57b57d4db61112a871</title>
<image xlink:href="C:\Users\cdpet\Documents\Data Collab Projects\invest_journal\invest-journal\diagrams\images\fastapi.png" width="100.8px" height="100.8px" preserveAspectRatio="xMinYMin meet" x="390.35" y="-432.4"/>
<text text-anchor="middle" x="440.75" y="-293.15" font-family="Calibri" font-size="13.00" fill="#2d3436">FastAPI</text>
<text text-anchor="middle" x="440.75" y="-277.4" font-family="Calibri" font-size="13.00" fill="#2d3436">Python Server</text>
</g>
<!-- a8a830bd70644626ae6db1d404e9082a&#45;&gt;03b63373f5c34c57b57d4db61112a871 -->
<g id="edge2" class="edge">
<title>a8a830bd70644626ae6db1d404e9082a&#45;&gt;03b63373f5c34c57b57d4db61112a871</title>
<path fill="none" stroke="#00cdcd" d="M67.2,-201.27C67.2,-263.58 67.2,-346 67.2,-346 67.2,-346 378.86,-346 378.86,-346"/>
<polygon fill="#00cdcd" stroke="#00cdcd" points="378.86,-349.5 388.86,-346 378.86,-342.5 378.86,-349.5"/>
</g>
<!-- a663f4e578d1477482ee20e443cbcf14&#45;&gt;03b63373f5c34c57b57d4db61112a871 -->
<g id="edge3" class="edge">
<title>a663f4e578d1477482ee20e443cbcf14&#45;&gt;03b63373f5c34c57b57d4db61112a871</title>
<path fill="none" stroke="#00cdcd" d="M272.44,-133C337.1,-133 441.2,-133 441.2,-133 441.2,-133 441.2,-262.72 441.2,-262.72"/>
<polygon fill="#00cdcd" stroke="#00cdcd" points="437.7,-262.72 441.2,-272.72 444.7,-262.72 437.7,-262.72"/>
</g>
<!-- cbc73f3694734a09a9c06232b32b4693 -->
<g id="node4" class="node">
<title>cbc73f3694734a09a9c06232b32b4693</title>
<image xlink:href="C:\Users\cdpet\anaconda3\envs\invest\Lib\site-packages\resources/generic/storage\storage.png" width="100.8px" height="100.8px" preserveAspectRatio="xMinYMin meet" x="637.4" y="-351.4"/>
<text text-anchor="middle" x="687.8" y="-236" font-family="Calibri" font-size="13.00" fill="#2d3436">Ingest Database</text>
</g>
<!-- 185f2ad93b3d42c99e96bce032fdcab5 -->
<g id="node5" class="node">
<title>185f2ad93b3d42c99e96bce032fdcab5</title>
<image xlink:href="C:\Users\cdpet\anaconda3\envs\invest\Lib\site-packages\resources/generic/storage\storage.png" width="100.8px" height="100.8px" preserveAspectRatio="xMinYMin meet" x="637.4" y="-531.4"/>
<text text-anchor="middle" x="687.8" y="-416" font-family="Calibri" font-size="13.00" fill="#2d3436">SQL Database</text>
</g>
<!-- 03b63373f5c34c57b57d4db61112a871&#45;&gt;cbc73f3694734a09a9c06232b32b4693 -->
<g id="edge4" class="edge">
<title>03b63373f5c34c57b57d4db61112a871&#45;&gt;cbc73f3694734a09a9c06232b32b4693</title>
<path fill="none" stroke="#00cdcd" d="M502.56,-321.7C502.56,-321.7 626.06,-321.7 626.06,-321.7"/>
<polygon fill="#00cdcd" stroke="#00cdcd" points="502.56,-318.2 492.56,-321.7 502.56,-325.2 502.56,-318.2"/>
<polygon fill="#00cdcd" stroke="#00cdcd" points="626.06,-325.2 636.06,-321.7 626.06,-318.2 626.06,-325.2"/>
<text text-anchor="middle" x="564.27" y="-323.4" font-family="Calibri" font-size="13.00" fill="#2d3436">unprocessed data</text>
</g>
<!-- 03b63373f5c34c57b57d4db61112a871&#45;&gt;185f2ad93b3d42c99e96bce032fdcab5 -->
<g id="edge5" class="edge">
<title>03b63373f5c34c57b57d4db61112a871&#45;&gt;185f2ad93b3d42c99e96bce032fdcab5</title>
<path fill="none" stroke="tomato" d="M502.56,-451.3C502.56,-451.3 626.06,-451.3 626.06,-451.3"/>
<polygon fill="tomato" stroke="tomato" points="502.56,-447.8 492.56,-451.3 502.56,-454.8 502.56,-447.8"/>
<polygon fill="tomato" stroke="tomato" points="626.06,-454.8 636.06,-451.3 626.06,-447.8 626.06,-454.8"/>
<text text-anchor="middle" x="564.27" y="-425.4" font-family="Calibri" font-size="13.00" fill="#2d3436">SQLModel</text>
</g>
<!-- 60a807ffd7344ed795e9515debb46d71 -->
<g id="node9" class="node">
<title>60a807ffd7344ed795e9515debb46d71</title>
<image xlink:href="C:\Users\cdpet\Documents\Data Collab Projects\invest_journal\invest-journal\diagrams\images\fastapi.png" width="100.8px" height="100.8px" preserveAspectRatio="xMinYMin meet" x="637.4" y="-729.4"/>
<text text-anchor="middle" x="687.8" y="-615.35" font-family="Calibri" font-size="13.00" fill="#2d3436">FastAPI</text>
<text text-anchor="middle" x="687.8" y="-599.6" font-family="Calibri" font-size="13.00" fill="#2d3436">Analysis Server</text>
</g>
<!-- 03b63373f5c34c57b57d4db61112a871&#45;&gt;60a807ffd7344ed795e9515debb46d71 -->
<g id="edge9" class="edge">
<title>03b63373f5c34c57b57d4db61112a871&#45;&gt;60a807ffd7344ed795e9515debb46d71</title>
<path fill="none" stroke="#3064f2" d="M441.2,-501.29C441.2,-501.29 441.2,-572.5 441.2,-572.5 441.2,-572.5 688.2,-572.5 688.2,-572.5 688.2,-572.5 688.2,-584.89 688.2,-584.89"/>
<polygon fill="#3064f2" stroke="#3064f2" points="444.7,-501.29 441.2,-491.29 437.7,-501.29 444.7,-501.29"/>
<polygon fill="#3064f2" stroke="#3064f2" points="684.7,-584.89 688.2,-594.89 691.7,-584.89 684.7,-584.89"/>
</g>
<!-- 6dbaf033254748d987b0837ac0b4bb0c&#45;&gt;03b63373f5c34c57b57d4db61112a871 -->
<g id="edge7" class="edge">
<title>6dbaf033254748d987b0837ac0b4bb0c&#45;&gt;03b63373f5c34c57b57d4db61112a871</title>
<path fill="none" stroke="tomato" d="M222.2,-584.29C222.2,-584.29 222.2,-418 222.2,-418 222.2,-418 379.1,-418 379.1,-418"/>
<polygon fill="tomato" stroke="tomato" points="218.7,-584.29 222.2,-594.29 225.7,-584.29 218.7,-584.29"/>
<polygon fill="tomato" stroke="tomato" points="379.1,-421.5 389.1,-418 379.1,-414.5 379.1,-421.5"/>
</g>
<!-- 36a8106ac9f140f281067ffc7463e2f9 -->
<g id="node8" class="node">
<title>36a8106ac9f140f281067ffc7463e2f9</title>
<image xlink:href="C:\Users\cdpet\Documents\Data Collab Projects\invest_journal\invest-journal\diagrams\images\sqlite.png" width="100.8px" height="100.8px" preserveAspectRatio="xMinYMin meet" x="390.35" y="-714.4"/>
<text text-anchor="middle" x="440.75" y="-599" font-family="Calibri" font-size="13.00" fill="#2d3436">SQLite</text>
</g>
<!-- 6dbaf033254748d987b0837ac0b4bb0c&#45;&gt;36a8106ac9f140f281067ffc7463e2f9 -->
<g id="edge6" class="edge">
<title>6dbaf033254748d987b0837ac0b4bb0c&#45;&gt;36a8106ac9f140f281067ffc7463e2f9</title>
<path fill="none" stroke="mediumslateblue" d="M283.85,-664C283.85,-664 378.95,-664 378.95,-664"/>
<polygon fill="mediumslateblue" stroke="mediumslateblue" points="283.85,-660.5 273.85,-664 283.85,-667.5 283.85,-660.5"/>
<polygon fill="mediumslateblue" stroke="mediumslateblue" points="378.95,-667.5 388.95,-664 378.95,-660.5 378.95,-667.5"/>
<text text-anchor="middle" x="331.47" y="-667.4" font-family="Calibri" font-size="13.00" fill="#2d3436">app settings</text>
</g>
</g>
</svg>
